#!OML:ASF E:\emotionWalksFemale\Project 1\Capture day 1\Session 1\Female1.ASF
:FULLY-SPECIFIED
:DEGREES
426
root 8.8913 15.6222 -0.0890214 -179.452 -4.82687 -178.557
lowerback 5.55958 -0.578789 -0.636605
upperback -4.23438 -0.920531 0.0351544
thorax -7.54635 -0.454806 0.509586
lowerneck -7.05587 -1.71001 -4.52017
upperneck 16.8205 -3.12003 4.3751
head 6.39592 -1.71614 1.87807
rclavicle 1.3418e-014 5.96354e-016
rhumerus -43.8819 8.26278 -90.1368
rradius 32.8246
rwrist 17.3617
rhand 0.917567 -54.4734
rfingers 7.12502
rthumb 26.4689 -82.6449
lclavicle 1.3418e-014 5.96354e-016
lhumerus -46.8434 -1.05717 84.7006
lradius 33.2672
lwrist -19.3665
lhand 1.56439 -32.3808
lfingers 7.12502
lthumb 27.0879 -4.30406
rfemur -11.8707 18.1549 26.8281
rtibia 14.8048
rfoot -5.68963 -30.2588
rtoes 24.8331
lfemur -0.0284494 1.18658 -18.3815
ltibia 52.4427
lfoot 9.72791 5.59918
ltoes -16.0622
427
root 8.91721 15.6318 -0.223463 -179.608 -4.98984 -178.028
lowerback 5.73922 -0.5716 -0.0325103
upperback -4.2344 -0.850898 0.0856487
thorax -7.65929 -0.449673 0.21758
lowerneck -6.99967 -1.74986 -4.75128
upperneck 16.7616 -3.22007 4.80762
head 6.38157 -1.74736 2.04751
rclavicle 2.01269e-015 -9.54166e-015
rhumerus -43.9534 8.70492 -90.4676
rradius 33.3754
rwrist 16.4478
rhand 0.678831 -54.2893
rfingers 7.12502
rthumb 26.2404 -82.495
lclavicle 2.01269e-015 -9.54166e-015
lhumerus -46.9497 -1.72395 84.9518
lradius 33.3594
lwrist -18.742
lhand 2.34338 -32.1618
lfingers 7.12502
lthumb 27.8329 -4.2033
rfemur -10.5584 17.8574 27.7988
rtibia 13.5966
rfoot -4.78967 -30.1235
rtoes 23.1454
lfemur -1.42258 1.26615 -17.5375
ltibia 54.9077
lfoot 11.4949 5.68148
ltoes -12.6628
428
root 8.94502 15.6369 -0.350974 -179.768 -5.08007 -177.453
lowerback 5.91757 -0.550361 0.524021
upperback -4.16263 -0.755233 0.222987
thorax -7.69188 -0.425839 0.0389706
lowerneck -7.26884 -1.86196 -4.94206
upperneck 16.8446 -3.36348 4.98856
head 6.4684 -1.80719 2.12387
rclavicle 1.39149e-015 -6.36111e-015
rhumerus -43.8579 9.31281 -90.7011
rradius 33.8798
rwrist 15.808
rhand 0.891378 -54.2099
rfingers 7.12502
rthumb 26.4439 -82.3852
lclavicle 1.39149e-015 -6.36111e-015
lhumerus -46.9385 -2.24403 85.2486
lradius 33.3919
lwrist -18.2056
lhand 2.44126 -32.5086
lfingers 7.12502
lthumb 27.9265 -4.56525
rfemur -9.2168 17.5374 28.8236
rtibia 12.2837
rfoot -4.21993 -29.9514
rtoes 21.9976
lfemur -2.86201 1.42752 -16.6692
ltibia 57.299
lfoot 13.2633 5.7914
ltoes -10.6152
429
root 8.97474 15.6351 -0.476256 -179.919 -5.06531 -176.901
lowerback 5.95819 -0.510194 0.965406
upperback -4.02305 -0.643737 0.374974
thorax -7.56891 -0.386856 -0.0642125
lowerneck -7.43033 -1.99231 -4.96251
upperneck 16.8101 -3.51302 4.96224
head 6.49403 -1.87437 2.10556
rclavicle -1.83876e-015 -7.95139e-016
rhumerus -43.5993 10.043 -90.9652
rradius 34.2454
rwrist 15.3785
rhand 1.1093 -54.3675
rfingers 7.12502
rthumb 26.6525 -82.5112
lclavicle -1.83876e-015 -7.95139e-016
lhumerus -46.9389 -2.72866 85.5305
lradius 33.5687
lwrist -17.5987
lhand 1.90464 -33.0504
lfingers 7.12502
lthumb 27.4134 -5.02471
rfemur -7.90347 17.3165 29.8231
rtibia 10.9903
rfoot -3.94642 -29.8006
rtoes 21.6438
lfemur -4.31641 1.64227 -15.8552
ltibia 59.584
lfoot 15.1515 5.82702
ltoes -7.79278
430
root 9.00082 15.6305 -0.606198 -180.128 -5.03951 -176.387
lowerback 5.91546 -0.459942 1.37052
upperback -3.86298 -0.526599 0.512905
thorax -7.37471 -0.342957 -0.163467
lowerneck -7.23392 -2.0999 -4.77337
upperneck 16.5342 -3.63497 4.76768
head 6.37233 -1.93314 2.00415
rclavicle -1.01877e-014 -1.98785e-015
rhumerus -43.3943 10.7278 -91.2571
rradius 34.5011
rwrist 14.7139
rhand 0.62126 -54.197
rfingers 7.12502
rthumb 26.1853 -82.4109
lclavicle -1.01877e-014 -1.98785e-015
lhumerus -46.9025 -3.06548 85.7283
lradius 33.7063
lwrist -17.2918
lhand 1.18862 -33.5006
lfingers 7.12502
lthumb 26.7284 -5.36846
rfemur -6.61917 17.0399 30.7849
rtibia 9.93104
rfoot -4.20378 -29.6352
rtoes 22.5987
lfemur -5.66039 1.8061 -15.1369
ltibia 61.706
lfoot 14.7741 5.65981
ltoes -8.7801
431
root 9.02341 15.6252 -0.7342 -180.303 -5.03878 -176.012
lowerback 5.95967 -0.396808 1.69141
upperback -3.78782 -0.403999 0.619585
thorax -7.32055 -0.294743 -0.246993
lowerneck -7.16754 -2.15594 -4.74334
upperneck 16.5032 -3.71571 4.7529
head 6.35426 -1.97254 1.98868
rclavicle -3.10601e-015 -7.55382e-015
rhumerus -43.2843 11.1812 -91.3925
rradius 34.7136
rwrist 14.1753
rhand -0.204143 -53.6243
rfingers 7.12502
rthumb 25.3948 -81.953
lclavicle -3.10601e-015 -7.55382e-015
lhumerus -46.7886 -3.21429 85.8674
lradius 33.6369
lwrist -17.5275
lhand 0.282115 -34.0114
lfingers 7.12502
lthumb 25.8606 -5.74973
rfemur -5.55615 16.721 31.5473
rtibia 9.23185
rfoot -4.74301 -29.5632
rtoes 23.7581
lfemur -7.0014 1.8801 -14.6451
ltibia 63.6482
lfoot 13.9014 5.4739
ltoes -10.2581
432
root 9.04428 15.6157 -0.853182 -180.414 -5.08553 -175.702
lowerback 6.17344 -0.317332 2.03726
upperback -3.83064 -0.258823 0.650676
thorax -7.4904 -0.24219 -0.424446
lowerneck -7.1712 -2.21986 -4.84076
upperneck 16.7197 -3.857 4.95483
head 6.43594 -2.03996 2.05744
rclavicle 1.635e-014 1.39149e-014
rhumerus -43.1664 11.3642 -91.4206
rradius 34.8582
rwrist 13.9529
rhand -0.468185 -53.425
rfingers 7.12502
rthumb 25.1419 -81.7895
lclavicle 1.635e-014 1.39149e-014
lhumerus -46.6365 -3.51021 85.99
lradius 33.4673
lwrist -17.6784
lhand -0.318194 -34.4088
lfingers 7.12502
lthumb 25.2856 -6.06459
rfemur -4.80041 16.3625 32.1972
rtibia 8.91995
rfoot -4.95015 -29.494
rtoes 23.3839
lfemur -8.41317 1.83096 -14.2736
ltibia 65.4462
lfoot 12.2587 5.18198
ltoes -11.8405
433
root 9.06435 15.602 -0.968324 -180.481 -5.02843 -175.376
lowerback 6.31378 -0.207528 2.36542
upperback -3.8766 -0.0754097 0.692549
thorax -7.61854 -0.170639 -0.586719
lowerneck -6.87449 -2.31377 -4.90179
upperneck 16.6497 -4.02427 5.0889
head 6.37408 -2.12421 2.10016
rclavicle -5.09386e-015 -7.95139e-015
rhumerus -42.989 11.4869 -91.3666
rradius 34.8383
rwrist 14.2638
rhand -0.511769 -53.2269
rfingers 7.12502
rthumb 25.1001 -81.5972
lclavicle -5.09386e-015 -7.95139e-015
lhumerus -46.5369 -3.84365 86.1066
lradius 33.4775
lwrist -17.5902
lhand -0.836699 -34.6388
lfingers 7.12502
lthumb 24.7887 -6.22533
rfemur -4.35816 16.1132 32.8559
rtibia 9.0983
rfoot -5.04194 -29.3715
rtoes 22.032
lfemur -9.81176 1.86998 -13.9062
ltibia 67.0708
lfoot 10.029 4.45147
ltoes -15.1518
434
root 9.0841 15.5886 -1.0869 -180.552 -4.7979 -175.148
lowerback 6.29876 -0.0679755 2.484
upperback -3.87019 0.125466 0.763291
thorax -7.5975 -0.0769118 -0.604577
lowerneck -6.50615 -2.42515 -5.03892
upperneck 16.4544 -4.19637 5.22896
head 6.26248 -2.21358 2.15858
rclavicle 4.79568e-015 3.97569e-016
rhumerus -42.7253 11.5072 -91.1888
rradius 34.614
rwrist 15.1366
rhand -0.670293 -52.8418
rfingers 7.12502
rthumb 24.9482 -81.2333
lclavicle 4.79568e-015 3.97569e-016
lhumerus -46.4613 -3.81143 86.0958
lradius 33.5123
lwrist -17.7424
lhand -1.68455 -34.7933
lfingers 7.12502
lthumb 23.9759 -6.27048
rfemur -4.11175 16.0278 33.4016
rtibia 9.68913
rfoot -5.35376 -29.2708
rtoes 20.4547
lfemur -11.1472 2.02222 -13.6988
ltibia 68.4685
lfoot 7.90753 3.47978
ltoes -19.5993
